#tb 0: 1/25
0,          0,          0,        1,   518400, 0xc93c7c47
0,          1,          1,        1,   518400, 0x7112ac25
0,          2,          2,        1,   518400, 0x28bc28d2
0,          3,          3,        1,   518400, 0x6fc36875
0,          4,          4,        1,   518400, 0x3de99be0
0,          5,          5,        1,   518400, 0x97125499
0,          6,          6,        1,   518400, 0xb96fca3a
0,          7,          7,        1,   518400, 0x1ec56c0f
0,          8,          8,        1,   518400, 0xc65901d0
0,          9,          9,        1,   518400, 0x2baa1bfa
0,         10,         10,        1,   518400, 0x244fc6b7
0,         11,         11,        1,   518400, 0xc3536383
0,         12,         12,        1,   518400, 0xbcf40d5a
0,         13,         13,        1,   518400, 0x955f4734
0,         14,         14,        1,   518400, 0xe1b0275e
